<?xml version="1.0" encoding="UTF-8"?>
<!DOCTYPE svg PUBLIC "-//W3C//DTD SVG 1.1//EN" "http://www.w3.org/Graphics/SVG/1.1/DTD/svg11.dtd">
<!-- Creator: CorelDRAW 2018 (64-Bit) -->
<svg xmlns="http://www.w3.org/2000/svg" xml:space="preserve" width="640px" height="480px" version="1.1" style="shape-rendering:geometricPrecision; text-rendering:geometricPrecision; image-rendering:optimizeQuality; fill-rule:evenodd; clip-rule:evenodd"
viewBox="0 0 640 480"
 xmlns:xlink="http://www.w3.org/1999/xlink">
 <defs>
  <style type="text/css">
   <![CDATA[
    .str0 {stroke:#C4D0D0;stroke-width:0.9;stroke-miterlimit:22.9256}
    .fil8 {fill:#F7AEAC}
    .fil11 {fill:#F5908E}
    .fil7 {fill:#EE3637}
    .fil5 {fill:#F5DA42}
    .fil6 {fill:#EBF0BD}
    .fil2 {fill:#C4D0D0}
    .fil4 {fill:#AEB1B2}
    .fil12 {fill:#767C7D}
    .fil1 {fill:#515353}
    .fil9 {fill:#62BD6C}
    .fil3 {fill:#53B582}
    .fil10 {fill:#4BB36D}
    .fil0 {fill:#48A465}
   ]]>
  </style>
 </defs>
 <g id="Layer_x0020_1">
  <metadata id="CorelCorpID_0Corel-Layer"/>
  <rect class="fil0" x="65.32" y="11" width="517.89" height="460"/>
  <rect class="fil1" x="88.32" y="288.98" width="89.87" height="129.47"/>
  <rect class="fil2" x="51" y="292.03" width="24.37" height="120.33"/>
  <rect class="fil2" x="57.85" y="263.85" width="17.52" height="19.8"/>
  <rect class="fil2 str0" x="60.52" y="423.02" width="17.52" height="19.8"/>
  <rect class="fil1" x="75.37" y="251.66" width="13.71" height="212.49"/>
  <rect class="fil2" x="89.02" y="259.24" width="44.17" height="23.61"/>
  <rect class="fil2" x="133.09" y="263.73" width="13.54" height="4.91"/>
  <rect class="fil2" x="133.04" y="273.35" width="13.54" height="4.91"/>
  <rect class="fil2" x="89.02" y="423.64" width="44.17" height="23.61"/>
  <rect class="fil2" x="133.03" y="427.34" width="13.54" height="4.91"/>
  <rect class="fil2" x="133.03" y="438.4" width="13.54" height="4.91"/>
  <rect class="fil1" x="76.54" y="211.92" width="90.9" height="27.02"/>
  <rect class="fil2" x="79.4" y="215.6" width="6.55" height="7.37"/>
  <rect class="fil2" x="156.79" y="216.01" width="6.55" height="7.37"/>
  <rect class="fil2" x="130.17" y="215.81" width="6.55" height="7.37"/>
  <rect class="fil2" x="143.17" y="215.81" width="6.55" height="7.37"/>
  <rect class="fil2" x="117.89" y="215.7" width="6.55" height="7.37"/>
  <rect class="fil2" x="104.58" y="215.91" width="6.55" height="7.37"/>
  <rect class="fil2" x="92.09" y="215.6" width="6.55" height="7.37"/>
  <rect class="fil2" x="156.79" y="227.99" width="6.55" height="7.37"/>
  <rect class="fil2" x="143.28" y="227.99" width="6.55" height="7.37"/>
  <rect class="fil2" x="130.69" y="227.89" width="6.55" height="7.37"/>
  <rect class="fil2" x="118.2" y="227.99" width="6.55" height="7.37"/>
  <rect class="fil2" x="104.99" y="227.99" width="6.55" height="7.37"/>
  <rect class="fil2" x="92.3" y="227.89" width="6.55" height="7.37"/>
  <rect class="fil2" x="79.3" y="227.89" width="6.55" height="7.37"/>
  <rect class="fil2" x="77.25" y="193.7" width="107.28" height="18.02"/>
  <rect class="fil3" x="79.09" y="200.45" width="103.59" height="4.5"/>
  <rect class="fil4" x="84.21" y="200.45" width="3.28" height="4.5"/>
  <rect class="fil4" x="94.45" y="200.45" width="3.48" height="4.5"/>
  <rect class="fil4" x="105.1" y="200.45" width="3.89" height="4.5"/>
  <rect class="fil4" x="115.74" y="200.45" width="3.69" height="4.5"/>
  <rect class="fil4" x="127.21" y="200.45" width="3.69" height="4.5"/>
  <rect class="fil4" x="137.85" y="200.45" width="3.48" height="4.5"/>
  <rect class="fil4" x="147.27" y="200.45" width="3.48" height="4.5"/>
  <rect class="fil4" x="155.94" y="200.45" width="3.38" height="4.5"/>
  <rect class="fil4" x="164.44" y="200.45" width="3.28" height="4.5"/>
  <rect class="fil4" x="172.22" y="200.45" width="3.58" height="4.5"/>
  <rect class="fil2" x="169.99" y="213.45" width="14.51" height="18.02"/>
  <rect class="fil3" x="170.78" y="219.9" width="12.69" height="4.71"/>
  <rect class="fil4" x="175.49" y="219.9" width="2.76" height="4.71"/>
  <rect class="fil1" x="71.18" y="56.02" width="113.83" height="32.35"/>
  <rect class="fil2" x="88.48" y="74.34" width="6.55" height="7.37"/>
  <rect class="fil2" x="147.04" y="60.83" width="6.55" height="7.37"/>
  <rect class="fil2" x="132.09" y="60.62" width="6.55" height="7.37"/>
  <rect class="fil2" x="115.41" y="61.34" width="6.55" height="7.37"/>
  <rect class="fil2" x="101.89" y="60.93" width="6.55" height="7.37"/>
  <rect class="fil2" x="88.38" y="60.52" width="6.55" height="7.37"/>
  <rect class="fil2" x="74.87" y="60.52" width="6.55" height="7.37"/>
  <rect class="fil2" x="101.79" y="74.34" width="6.55" height="7.37"/>
  <rect class="fil2" x="115.51" y="74.96" width="6.55" height="7.37"/>
  <rect class="fil2" x="132.09" y="75.16" width="6.55" height="7.37"/>
  <rect class="fil2" x="146.83" y="74.55" width="6.55" height="7.37"/>
  <rect class="fil2" x="161.16" y="74.34" width="6.55" height="7.37"/>
  <rect class="fil2" x="172.73" y="74.85" width="6.55" height="7.37"/>
  <rect class="fil2" x="172.73" y="61.34" width="6.55" height="7.37"/>
  <rect class="fil2" x="160.75" y="61.03" width="6.55" height="7.37"/>
  <rect class="fil2" x="75.18" y="74.34" width="6.55" height="7.37"/>
  <rect class="fil2" x="77.43" y="92.56" width="92.54" height="20.47"/>
  <rect class="fil3" x="80.29" y="99.52" width="86.81" height="6.55"/>
  <rect class="fil4" x="86.54" y="99.52" width="5.12" height="6.55"/>
  <rect class="fil4" x="86.54" y="99.52" width="5.12" height="6.55"/>
  <rect class="fil4" x="150.31" y="99.52" width="5.12" height="6.55"/>
  <rect class="fil4" x="135.06" y="99.52" width="5.12" height="6.55"/>
  <rect class="fil4" x="102.2" y="99.42" width="5.12" height="6.55"/>
  <rect class="fil4" x="120.22" y="99.52" width="5.12" height="6.55"/>
  <rect class="fil2" x="187.88" y="31.96" width="22.93" height="36.03"/>
  <rect class="fil2" x="115.82" y="30.73" width="40.54" height="21.29"/>
  <rect class="fil3" x="117.86" y="38.51" width="37.26" height="6.14"/>
  <rect class="fil3" x="196.07" y="33.6" width="6.76" height="32.55"/>
  <rect class="fil4" x="124.62" y="38.51" width="5.02" height="6.14"/>
  <rect class="fil4" x="141.82" y="38.51" width="4.71" height="6.14"/>
  <rect class="fil4" x="196.07" y="40.15" width="6.76" height="5.73"/>
  <rect class="fil4" x="196.07" y="53.87" width="6.76" height="5.73"/>
  <rect class="fil2" x="217.26" y="31.76" width="41.36" height="4.91"/>
  <rect class="fil2" x="217.67" y="69.33" width="41.36" height="4.91"/>
  <rect class="fil2" x="217.57" y="60.22" width="41.36" height="4.91"/>
  <rect class="fil2" x="217.46" y="50.59" width="41.36" height="4.91"/>
  <rect class="fil2" x="217.26" y="41.07" width="41.36" height="4.91"/>
  <rect class="fil1" x="225.65" y="30.32" width="25.39" height="46.06"/>
  <polygon class="fil2" points="279.5,50.49 271.31,79.36 293.62,79.36 302.02,50.9 "/>
  <polygon class="fil2" points="318.4,49.16 318.6,73.52 368.04,59.6 368.15,38.21 "/>
  <polygon class="fil3" points="287.21,52.28 279.6,77.31 284.31,77.31 291.99,52.33 "/>
  <polygon class="fil3" points="321.26,56.33 321.26,62.77 365.69,51.51 365.78,45.9 "/>
  <polygon class="fil4" points="285.62,57.5 290.43,57.39 289.35,60.91 284.57,60.95 "/>
  <polygon class="fil4" points="282.39,68.15 287.13,68.12 286.03,71.72 281.29,71.74 "/>
  <polygon class="fil4" points="327.07,54.97 327.07,61.3 331.83,60.1 331.87,53.84 "/>
  <polygon class="fil4" points="340.46,51.83 340.55,57.88 345.22,56.7 345.33,50.69 "/>
  <polygon class="fil4" points="353.69,48.73 353.67,54.56 358.35,53.38 358.54,47.6 "/>
  <circle class="fil5" cx="383.58" cy="39.9" r="11.67"/>
  <circle class="fil5" cx="471.41" cy="42.56" r="11.67"/>
  <circle class="fil5" cx="440.7" cy="41.74" r="11.67"/>
  <circle class="fil5" cx="411.01" cy="41.12" r="11.67"/>
  <path class="fil6" d="M374.88 40.1c-1.19,-11.22 12.31,-9.18 10.23,-8.92 -4.78,0.59 -7.96,6.14 -10.23,8.92z"/>
  <path class="fil6" d="M462.71 42.97c-1.2,-11.23 12.31,-9.18 10.23,-8.93 -4.78,0.59 -7.96,6.15 -10.23,8.93z"/>
  <path class="fil6" d="M432.41 42.25c-1.2,-11.22 12.31,-9.18 10.23,-8.92 -4.78,0.59 -7.96,6.14 -10.23,8.92z"/>
  <path class="fil6" d="M402.06 41.36c-1.19,-11.22 12.32,-9.17 10.24,-8.92 -4.79,0.59 -7.96,6.14 -10.24,8.92z"/>
  <rect class="fil4" x="492.29" y="50.23" width="14.13" height="26"/>
  <rect class="fil2" x="498.74" y="53.31" width="12.69" height="18.63"/>
  <rect class="fil1" x="511.02" y="43.48" width="21.7" height="38.49"/>
  <rect class="fil2" x="270.11" y="103.72" width="6.35" height="141.67"/>
  <rect class="fil2" x="282.39" y="103.72" width="6.35" height="141.67"/>
  <rect class="fil2" x="296.11" y="103.93" width="6.35" height="141.67"/>
  <rect class="fil2" x="347.29" y="104.33" width="6.35" height="141.67"/>
  <rect class="fil2" x="320.88" y="103.72" width="6.35" height="141.67"/>
  <rect class="fil2" x="373.09" y="104.74" width="6.35" height="141.67"/>
  <rect class="fil2" x="360.19" y="104.95" width="6.35" height="141.67"/>
  <rect class="fil2" x="333.78" y="104.33" width="6.35" height="141.67"/>
  <rect class="fil2" x="307.78" y="104.54" width="6.35" height="141.67"/>
  <rect class="fil2" x="254.55" y="119.89" width="139.83" height="6.35"/>
  <rect class="fil2" x="254.04" y="211.51" width="139.83" height="6.35"/>
  <rect class="fil2" x="254.75" y="187.05" width="139.83" height="6.35"/>
  <rect class="fil2" x="254.14" y="161.66" width="139.83" height="6.35"/>
  <rect class="fil2" x="254.44" y="133.71" width="139.83" height="6.35"/>
  <rect class="fil2" x="254.85" y="199.02" width="139.83" height="6.35"/>
  <rect class="fil2" x="255.16" y="147.33" width="139.83" height="6.35"/>
  <rect class="fil2" x="254.75" y="173.74" width="139.83" height="6.35"/>
  <rect class="fil2" x="254.55" y="223.08" width="139.83" height="6.35"/>
  <rect class="fil1" x="264.37" y="114.57" width="119.97" height="119.97"/>
  <rect class="fil7" x="390.49" y="239.87" width="21.5" height="9.62" rx="4.5" ry="4.5"/>
  <rect class="fil2" x="433.48" y="142" width="6.96" height="79.03"/>
  <rect class="fil2" x="544.65" y="143.85" width="6.96" height="79.03"/>
  <rect class="fil2" x="513.53" y="143.23" width="6.96" height="79.03"/>
  <rect class="fil2" x="480.16" y="143.03" width="6.96" height="79.03"/>
  <rect class="fil2" x="447.61" y="142.62" width="6.96" height="79.03"/>
  <rect class="fil2" x="529.5" y="144.05" width="6.96" height="79.03"/>
  <rect class="fil2" x="464.39" y="143.23" width="6.96" height="79.03"/>
  <rect class="fil2" x="498.38" y="143.23" width="6.96" height="79.03"/>
  <rect class="fil2" x="558.98" y="143.64" width="6.96" height="79.03"/>
  <rect class="fil1" x="429.8" y="151.83" width="139.22" height="61.42"/>
  <rect class="fil2" x="365.92" y="330.76" width="6.76" height="78.21"/>
  <rect class="fil2" x="379.64" y="331.58" width="6.76" height="78.21"/>
  <rect class="fil2" x="394.17" y="332.2" width="6.76" height="78.21"/>
  <rect class="fil2" x="406.66" y="331.38" width="6.76" height="78.21"/>
  <rect class="fil2" x="350.56" y="344.89" width="76.57" height="7.17"/>
  <rect class="fil2" x="350.57" y="373.14" width="76.57" height="7.17"/>
  <rect class="fil2" x="350.77" y="358.81" width="76.57" height="7.17"/>
  <rect class="fil2" x="350.97" y="387.07" width="76.57" height="7.17"/>
  <rect class="fil1" x="358.35" y="339.57" width="61.01" height="61.01"/>
  <rect class="fil2" x="449.24" y="337.52" width="27.84" height="70.43" rx="13.92" ry="13.92"/>
  <rect class="fil2" x="299.38" y="431.7" width="37.26" height="37.61" rx="3.69" ry="3.69"/>
  <circle class="fil1" cx="318.63" cy="450.71" r="10.03"/>
  <circle class="fil1" cx="306.34" cy="437.84" r="4.3"/>
  <circle class="fil1" cx="330.3" cy="461.79" r="4.3"/>
  <circle class="fil1" cx="306.04" cy="462.1" r="4.3"/>
  <circle class="fil1" cx="330.6" cy="438.55" r="4.3"/>
  <rect class="fil2" x="373.8" y="432.75" width="37.26" height="37.61" rx="3.69" ry="3.69"/>
  <circle class="fil1" cx="392.74" cy="451.53" r="10.03"/>
  <circle class="fil1" cx="404.72" cy="463.84" r="4.3"/>
  <circle class="fil1" cx="380.97" cy="464.25" r="4.3"/>
  <circle class="fil1" cx="404.92" cy="439.68" r="4.3"/>
  <circle class="fil1" cx="380.97" cy="439.68" r="4.3"/>
  <circle class="fil7" cx="517.83" cy="450.63" r="11.16"/>
  <path class="fil8" d="M509.03 450.17c0,-4.75 2.25,-7.79 7,-8.76 0.02,0 5.8,0.7 3.04,1.36 -2.4,0.57 -7.14,4.04 -8.28,6.61 -0.11,0.25 -1.27,3.02 -1.51,3.1l-0.25 -2.31z"/>
  <rect class="fil2" x="490.24" y="337.47" width="108.77" height="83.11"/>
  <rect class="fil4" x="513.17" y="337.47" width="3.28" height="83.11"/>
  <rect class="fil1" x="185.6" y="313.72" width="22.93" height="89.26"/>
  <rect class="fil2" x="192.83" y="319.38" width="6.55" height="7.37"/>
  <rect class="fil2" x="194.46" y="372.2" width="6.55" height="7.37"/>
  <rect class="fil2" x="193.24" y="334.94" width="6.55" height="7.37"/>
  <rect class="fil2" x="193.79" y="354.67" width="6.55" height="7.37"/>
  <rect class="fil2" x="194.87" y="389.39" width="6.55" height="7.37"/>
  <rect class="fil2" x="278.55" y="284.85" width="23.75" height="50.77"/>
  <rect class="fil2" x="305.58" y="285.26" width="23.75" height="50.77"/>
  <rect class="fil2" x="277.73" y="341.77" width="23.75" height="74.93"/>
  <rect class="fil2" x="304.76" y="342.18" width="23.75" height="74.93"/>
  <rect class="fil3" x="287.15" y="287.72" width="6.35" height="45.86"/>
  <rect class="fil3" x="314.17" y="288.13" width="6.35" height="45.86"/>
  <rect class="fil3" x="286.54" y="344.23" width="6.35" height="70.02"/>
  <rect class="fil3" x="313.77" y="344.84" width="6.35" height="70.02"/>
  <rect class="fil4" x="286.54" y="384.51" width="6.35" height="5.32"/>
  <rect class="fil4" x="313.77" y="396.12" width="6.35" height="5.32"/>
  <rect class="fil4" x="286.54" y="395.72" width="6.35" height="5.32"/>
  <rect class="fil4" x="313.97" y="405.95" width="6.35" height="5.32"/>
  <rect class="fil4" x="286.54" y="405.34" width="6.35" height="5.32"/>
  <rect class="fil4" x="313.97" y="360.91" width="6.35" height="5.32"/>
  <rect class="fil4" x="286.74" y="360.09" width="6.35" height="5.32"/>
  <rect class="fil4" x="286.54" y="348.01" width="6.35" height="5.32"/>
  <rect class="fil4" x="313.77" y="348.22" width="6.35" height="5.32"/>
  <rect class="fil4" x="313.82" y="372.99" width="6.35" height="5.32"/>
  <rect class="fil4" x="286.54" y="372.27" width="6.35" height="5.32"/>
  <rect class="fil4" x="314.17" y="324.78" width="6.35" height="5.32"/>
  <rect class="fil4" x="314.38" y="314.08" width="6.35" height="5.32"/>
  <rect class="fil4" x="314.28" y="302.97" width="6.35" height="5.32"/>
  <rect class="fil4" x="287.15" y="325.01" width="6.35" height="5.32"/>
  <rect class="fil4" x="287.05" y="302.51" width="6.35" height="5.32"/>
  <rect class="fil4" x="287.05" y="291.46" width="6.35" height="5.32"/>
  <rect class="fil4" x="314.17" y="292.89" width="6.35" height="5.32"/>
  <rect class="fil4" x="287.15" y="313.26" width="6.35" height="5.32"/>
  <rect class="fil4" x="313.77" y="384.3" width="6.35" height="5.32"/>
  <rect class="fil2" x="243.55" y="411.25" width="23.75" height="50.77"/>
  <rect class="fil2" x="212.63" y="410.15" width="23.75" height="50.77"/>
  <rect class="fil3" x="252.76" y="413.83" width="6.35" height="45.86"/>
  <rect class="fil3" x="221.43" y="413.01" width="6.35" height="45.86"/>
  <rect class="fil4" x="252.96" y="418.21" width="6.35" height="5.32"/>
  <rect class="fil4" x="252.96" y="427.63" width="6.35" height="5.32"/>
  <rect class="fil4" x="252.76" y="438.38" width="6.35" height="5.32"/>
  <rect class="fil4" x="252.76" y="448.92" width="6.35" height="5.32"/>
  <rect class="fil4" x="221.64" y="448.71" width="6.35" height="5.32"/>
  <rect class="fil4" x="221.43" y="438.48" width="6.35" height="5.32"/>
  <rect class="fil4" x="221.54" y="427.42" width="6.35" height="5.32"/>
  <rect class="fil4" x="221.33" y="416.37" width="6.35" height="5.32"/>
  <rect class="fil9" x="458.1" y="282.37" width="40.13" height="38.9"/>
  <rect class="fil4" x="486.56" y="288.95" width="14.13" height="26"/>
  <rect class="fil2" x="494.34" y="292.63" width="12.69" height="18.63"/>
  <rect class="fil1" x="504.47" y="282.6" width="21.7" height="38.49"/>
  <rect class="fil2" x="337.72" y="287.28" width="53.23" height="24.57"/>
  <rect class="fil2" x="397.09" y="287.28" width="53.23" height="24.57"/>
  <rect class="fil3" x="339.36" y="295.88" width="50.16" height="7.37"/>
  <rect class="fil3" x="398.73" y="296.09" width="50.16" height="7.37"/>
  <rect class="fil4" x="344.27" y="295.88" width="5.94" height="7.37"/>
  <rect class="fil4" x="404.36" y="295.88" width="5.94" height="7.37"/>
  <rect class="fil4" x="439.17" y="296.29" width="5.94" height="7.37"/>
  <rect class="fil4" x="415.21" y="296.09" width="5.94" height="7.37"/>
  <rect class="fil4" x="428.01" y="296.09" width="5.94" height="7.37"/>
  <rect class="fil4" x="377.95" y="296.09" width="5.94" height="7.37"/>
  <rect class="fil4" x="366.9" y="295.88" width="5.94" height="7.37"/>
  <rect class="fil4" x="355.02" y="296.09" width="5.94" height="7.37"/>
  <polygon class="fil10" points="96.14,193.7 114.87,170.28 219.69,169.87 255.16,148.04 255.25,155.82 221.44,176.53 119.07,176.12 105.15,193.7 "/>
  <polygon class="fil10" points="156.95,113.04 137.91,130.26 65.32,130.67 65.32,125.55 136.27,125.55 149.57,113.04 "/>
  <polygon class="fil10" points="464.39,143.23 486.25,118.69 583.21,118.69 583.21,123.4 488.1,123.4 470.69,143.23 "/>
  <polygon class="fil10" points="184.5,220.62 256.29,270.65 255.88,314.05 278.55,328.38 278.55,335.63 255.88,322.65 255.88,365.24 277.73,379.23 277.73,386.94 248.92,368.51 248.92,274.34 184.5,228.07 "/>
  <polygon class="fil10" points="339.66,67.59 374.22,99.29 583.21,99.29 583.21,94.79 583.21,92.33 377.09,91.92 348.05,65.23 "/>
  <rect class="fil2" x="429.46" y="430.78" width="22.93" height="36.03"/>
  <rect class="fil3" x="437.68" y="432.21" width="6.76" height="32.55"/>
  <rect class="fil4" x="437.58" y="437.3" width="6.76" height="5.73"/>
  <rect class="fil4" x="437.79" y="455.62" width="6.76" height="5.73"/>
  <rect class="fil4" x="437.65" y="446.85" width="6.76" height="5.73"/>
  <polygon class="fil10" points="427.54,387.07 443.11,397.79 443.11,430.78 437.99,430.78 437.99,400.35 427.54,393.51 "/>
  <polygon class="fil10" points="457.65,471 477.91,431.26 546.91,431.26 555.1,420.58 561.03,420.58 549.98,435.97 481.6,435.97 463.07,471 "/>
  <path class="fil11" d="M391.57 244.09c0.03,-3.83 6.6,-3.36 8.88,-3.36 0.91,0 -2.62,0.45 -5.29,1.31 -2.04,0.66 -3.23,1.72 -3.59,2.05z"/>
  <rect class="fil12" x="230.45" y="36.67" width="15.56" height="32.65"/>
  <rect class="fil12" x="272.42" y="121.52" width="104.21" height="105.85"/>
  <rect class="fil12" x="436.62" y="158.17" width="124.89" height="49.14"/>
  <rect class="fil12" x="365.92" y="347.95" width="44.9" height="42.99"/>
  <rect class="fil1" x="233.93" y="41.07" width="9.01" height="24.06"/>
  <rect class="fil1" x="276.45" y="126.24" width="96.63" height="96.84"/>
  <rect class="fil1" x="441.74" y="162.26" width="115.06" height="40.74"/>
  <rect class="fil1" x="371.62" y="352.89" width="33.99" height="32.56"/>
 </g>
</svg>
